<?xml version="1.0" encoding="UTF-8" standalone="no" ?>
<!DOCTYPE svg PUBLIC "-//W3C//DTD SVG 1.1//EN" "http://www.w3.org/Graphics/SVG/1.1/DTD/svg11.dtd">
<svg xmlns="http://www.w3.org/2000/svg" xmlns:xlink="http://www.w3.org/1999/xlink" version="1.1" width="400" height="400" viewBox="0 0 400 400" xml:space="preserve">
<desc>Created with Fabric.js 3.6.2</desc>
<defs>
</defs>
<g transform="matrix(6.25 0 0 6.25 200 200)" id="Instagram"  >
<path style="stroke: none; stroke-width: 1; stroke-dasharray: none; stroke-linecap: butt; stroke-dashoffset: 0; stroke-linejoin: miter; stroke-miterlimit: 4; fill: rgb(38,50,56); fill-rule: nonzero; opacity: 1;"  transform=" translate(-16, -16)" d="M 23 30 H 9 c -3.86 0 -7 -3.14 -7 -7 V 9 c 0 -3.86 3.14 -7 7 -7 h 14 c 3.86 0 7 3.14 7 7 v 14 C 30 26.86 26.86 30 23 30 z M 9 3 C 5.691 3 3 5.691 3 9 v 14 c 0 3.309 2.691 6 6 6 h 14 c 3.309 0 6 -2.691 6 -6 V 9 c 0 -3.309 -2.691 -6 -6 -6 H 9 z" stroke-linecap="round" />
</g>
<g transform="matrix(6.25 0 0 6.25 200 200)" id="Instagram"  >
<path style="stroke: none; stroke-width: 1; stroke-dasharray: none; stroke-linecap: butt; stroke-dashoffset: 0; stroke-linejoin: miter; stroke-miterlimit: 4; fill: rgb(38,50,56); fill-rule: nonzero; opacity: 1;"  transform=" translate(-16, -16)" d="M 20 26 h -8 c -3.309 0 -6 -2.691 -6 -6 v -8 c 0 -3.309 2.691 -6 6 -6 h 8 c 3.309 0 6 2.691 6 6 v 8 C 26 23.309 23.309 26 20 26 z M 12 8 c -2.206 0 -4 1.794 -4 4 v 8 c 0 2.206 1.794 4 4 4 h 8 c 2.206 0 4 -1.794 4 -4 v -8 c 0 -2.206 -1.794 -4 -4 -4 H 12 z" stroke-linecap="round" />
</g>
<g transform="matrix(6.25 0 0 6.25 234.38 165.63)" id="Instagram"  >
<path style="stroke: none; stroke-width: 1; stroke-dasharray: none; stroke-linecap: butt; stroke-dashoffset: 0; stroke-linejoin: miter; stroke-miterlimit: 4; fill: rgb(38,50,56); fill-rule: nonzero; opacity: 1;"  transform=" translate(-21.5, -10.5)" d="M 21.5 11.75 c -0.689 0 -1.25 -0.561 -1.25 -1.25 s 0.561 -1.25 1.25 -1.25 s 1.25 0.561 1.25 1.25 S 22.189 11.75 21.5 11.75 z" stroke-linecap="round" />
</g>
<g transform="matrix(6.25 0 0 6.25 200 200)" id="Instagram"  >
<path style="stroke: none; stroke-width: 1; stroke-dasharray: none; stroke-linecap: butt; stroke-dashoffset: 0; stroke-linejoin: miter; stroke-miterlimit: 4; fill: rgb(38,50,56); fill-rule: nonzero; opacity: 1;"  transform=" translate(-16, -16)" d="M 16 21 c -2.757 0 -5 -2.243 -5 -5 s 2.243 -5 5 -5 s 5 2.243 5 5 S 18.757 21 16 21 z M 16 13 c -1.654 0 -3 1.346 -3 3 s 1.346 3 3 3 s 3 -1.346 3 -3 S 17.654 13 16 13 z" stroke-linecap="round" />
</g>
</svg>