<?xml version="1.0" encoding="UTF-8" standalone="no" ?>
<!DOCTYPE svg PUBLIC "-//W3C//DTD SVG 1.1//EN" "http://www.w3.org/Graphics/SVG/1.1/DTD/svg11.dtd">
<svg xmlns="http://www.w3.org/2000/svg" xmlns:xlink="http://www.w3.org/1999/xlink" version="1.1" width="400" height="400" viewBox="0 0 400 400" xml:space="preserve">
<desc>Created with Fabric.js 3.6.2</desc>
<defs>
</defs>
<g transform="matrix(1.69 0 0 1.69 200 200)" id="Facebook"  >
<path style="stroke: rgb(0,0,0); stroke-width: 3.0127; stroke-dasharray: none; stroke-linecap: round; stroke-dashoffset: 0; stroke-linejoin: round; stroke-miterlimit: 10; fill: none; fill-rule: nonzero; opacity: 1;"  transform=" translate(-60.51, -60.51)" d="M 96.507 119.488 l 15 0.016 c 4.4 0 8 -3.6 8 -8 V 9.506 c 0 -4.4 -3.6 -8 -8 -8 h -102 c -4.398 0 -8 3.6 -8 8 v 101.998 c 0 4.4 3.602 8 8 8 l 49.266 0.002 l 0.041 -0.285 V 68.852 H 44.922 V 50.75 h 13.891 V 31.653 C 60.299 16.278 75.925 16.03 75.925 16.03 h 18.352 v 17.607 l -10.418 0.248 c -5.205 0.247 -5.455 4.959 -5.455 4.959 V 50.75 h 16.121 L 92.54 68.852 H 78.403 v 50.369 l 0.004 0.252 l 5.9 0.006" stroke-linecap="round" />
</g>
</svg>